<?xml version="1.0" encoding="UTF-8" standalone="no"?>
<!-- Generator: Adobe Illustrator 19.0.0, SVG Export Plug-In . SVG Version: 6.00 Build 0)  -->

<svg
   xmlns:dc="http://purl.org/dc/elements/1.1/"
   xmlns:cc="http://creativecommons.org/ns#"
   xmlns:rdf="http://www.w3.org/1999/02/22-rdf-syntax-ns#"
   xmlns:svg="http://www.w3.org/2000/svg"
   xmlns="http://www.w3.org/2000/svg"
   xmlns:sodipodi="http://sodipodi.sourceforge.net/DTD/sodipodi-0.dtd"
   xmlns:inkscape="http://www.inkscape.org/namespaces/inkscape"
   version="1.1"
   id="Layer_1"
   x="0px"
   y="0px"
   viewBox="0 0 512 512"
   style="enable-background:new 0 0 512 512;"
   xml:space="preserve"
   sodipodi:docname="eleana-icon2.svg"
   inkscape:version="0.92.2 5c3e80d, 2017-08-06"
   inkscape:export-filename="/home/marcin/Labview/Eleana/builds/kde-gnome-integration/usr/share/icons/hicolor/8x8/apps/eleana.png"
   inkscape:export-xdpi="1.5"
   inkscape:export-ydpi="1.5"><metadata
     id="metadata49"><rdf:RDF><cc:Work
         rdf:about=""><dc:format>image/svg+xml</dc:format><dc:type
           rdf:resource="http://purl.org/dc/dcmitype/StillImage" /><dc:title></dc:title></cc:Work></rdf:RDF></metadata><defs
     id="defs47" /><sodipodi:namedview
     pagecolor="#ffffff"
     bordercolor="#666666"
     borderopacity="1"
     objecttolerance="10"
     gridtolerance="10"
     guidetolerance="10"
     inkscape:pageopacity="0"
     inkscape:pageshadow="2"
     inkscape:window-width="985"
     inkscape:window-height="746"
     id="namedview45"
     showgrid="false"
     inkscape:zoom="0.65186406"
     inkscape:cx="434.71712"
     inkscape:cy="74.531073"
     inkscape:window-x="691"
     inkscape:window-y="75"
     inkscape:window-maximized="0"
     inkscape:current-layer="Layer_1" /><g
     id="g14" /><g
     id="g16" /><g
     id="g18" /><g
     id="g20" /><g
     id="g22" /><g
     id="g24" /><g
     id="g26" /><g
     id="g28" /><g
     id="g30" /><g
     id="g32" /><g
     id="g34" /><g
     id="g36" /><g
     id="g38" /><g
     id="g40" /><g
     id="g42" /><g
     id="g979"><path
       id="path2"
       d="M441.937,482.358H75.453c-23.812,0-43.116-19.304-43.116-43.116V72.758  c0-23.812,19.304-43.116,43.116-43.116h366.484c23.812,0,43.116,19.304,43.116,43.116v366.484  C485.053,463.054,465.75,482.358,441.937,482.358z"
       style="fill:#EDEDED;" /><path
       id="path4"
       d="M485.053,343.309v95.933c0,23.812-19.303,43.116-43.116,43.116H75.453  c-23.812,0-43.116-19.304-43.116-43.116V257.078h61.979c0.354,0,0.686-0.174,0.886-0.465l96.69-139.662h74.31L416.787,342.83  c0.201,0.3,0.537,0.48,0.897,0.48H485.053z"
       style="fill:#FFBD7C;" /><path
       id="path6"
       d="M485.053,224.741v214.501c0,23.812-19.303,43.116-43.116,43.116H75.453  c-23.812,0-43.116-19.304-43.116-43.116v-31.259h83.537c0.365,0,0.706-0.185,0.905-0.493l118.249-182.749H485.053z"
       style="fill:#C1EBF7;" /><path
       id="path8"
       d="M115.874,256c0,11.906-9.651,21.558-21.558,21.558S72.758,267.906,72.758,256  c0-11.906,9.651-21.558,21.558-21.558S115.874,244.094,115.874,256z M191.326,94.316c-11.906,0-21.558,9.651-21.558,21.558  s9.651,21.558,21.558,21.558s21.558-9.651,21.558-21.558S203.233,94.316,191.326,94.316z M266.779,94.316  c-11.906,0-21.558,9.651-21.558,21.558s9.651,21.558,21.558,21.558c11.906,0,21.558-9.651,21.558-21.558  S278.685,94.316,266.779,94.316z M417.684,320.674c-11.906,0-21.558,9.651-21.558,21.558c0,11.906,9.651,21.558,21.558,21.558  c11.906,0,21.558-9.651,21.558-21.558C439.242,330.325,429.591,320.674,417.684,320.674z"
       style="fill:#B7441C;" /><path
       id="path10"
       d="M137.432,406.905c0,11.906-9.651,21.558-21.558,21.558s-21.558-9.651-21.558-21.558  s9.651-21.558,21.558-21.558S137.432,394.999,137.432,406.905z M234.442,202.105c-11.906,0-21.558,9.651-21.558,21.558  s9.651,21.558,21.558,21.558S256,235.57,256,223.663S246.349,202.105,234.442,202.105z"
       style="fill:#56889B;" /><path
       id="path12"
       d="M32.337,382.653c-4.466,0-8.084-3.62-8.084-8.084v-86.232c0-4.465,3.618-8.084,8.084-8.084s8.084,3.62,8.084,8.084v86.232  C40.421,379.034,36.803,382.653,32.337,382.653z M485.053,366.484c-4.466,0-8.084,3.62-8.084,8.084v64.674  c0,19.316-15.715,35.032-35.032,35.032H75.453c-19.317,0-35.032-15.716-35.032-35.032c0-4.465-3.618-8.084-8.084-8.084  s-8.084,3.62-8.084,8.084c0,28.231,22.969,51.2,51.2,51.2h366.484c28.231,0,51.2-22.969,51.2-51.2v-64.674  C493.137,370.104,489.518,366.484,485.053,366.484z M476.968,256v53.895c0,4.465,3.618,8.084,8.084,8.084s8.084-3.62,8.084-8.084  V256c0-4.465-3.618-8.084-8.084-8.084S476.968,251.535,476.968,256z M32.337,231.747c4.466,0,8.084-3.62,8.084-8.084V72.758  c0-19.316,15.715-35.032,35.032-35.032h366.484c19.317,0,35.032,15.716,35.032,35.032v118.568c0,4.465,3.618,8.084,8.084,8.084  s8.084-3.62,8.084-8.084V72.758c0-28.231-22.969-51.2-51.2-51.2H75.453c-28.231,0-51.2,22.969-51.2,51.2v150.905  C24.253,228.128,27.871,231.747,32.337,231.747z M361.095,223.663c0,4.465,3.618,8.084,8.084,8.084h134.737  c4.466,0,8.084-3.62,8.084-8.084c0-4.465-3.618-8.084-8.084-8.084H369.179C364.713,215.579,361.095,219.199,361.095,223.663z   M512,342.232c0,4.465-3.618,8.084-8.084,8.084h-57.719c-3.529,12.426-14.971,21.558-28.512,21.558  c-16.344,0-29.642-13.297-29.642-29.642c0-7.332,2.682-14.046,7.109-19.226L275.87,144.084c-2.867,0.926-5.92,1.431-9.091,1.431  c-13.542,0-24.983-9.132-28.512-21.558h-18.428c-3.529,12.426-14.971,21.558-28.512,21.558c-3.353,0-6.574-0.568-9.582-1.599  l-64.556,93.248c4.227,5.124,6.77,11.689,6.77,18.835c0,16.345-13.298,29.642-29.642,29.642c-13.542,0-24.983-9.132-28.512-21.558  H8.084C3.618,264.084,0,260.465,0,256c0-4.465,3.618-8.084,8.084-8.084h57.719c3.529-12.426,14.971-21.558,28.512-21.558  c3.353,0,6.574,0.568,9.582,1.599l64.556-93.248c-4.228-5.124-6.77-11.689-6.77-18.835c0-16.345,13.298-29.642,29.642-29.642  c13.542,0,24.983,9.132,28.512,21.558h18.428c3.529-12.426,14.971-21.558,28.512-21.558c16.344,0,29.642,13.297,29.642,29.642  c0,7.332-2.682,14.046-7.109,19.226l119.281,178.921c2.867-0.926,5.92-1.431,9.091-1.431c13.542,0,24.983,9.132,28.512,21.558  h57.719C508.382,334.147,512,337.767,512,342.232z M107.789,256c0-7.43-6.044-13.474-13.474-13.474  c-7.43,0-13.474,6.044-13.474,13.474c0,7.43,6.044,13.474,13.474,13.474C101.746,269.474,107.789,263.43,107.789,256z   M204.8,115.874c0-7.43-6.044-13.474-13.474-13.474s-13.474,6.044-13.474,13.474s6.044,13.474,13.474,13.474  S204.8,123.304,204.8,115.874z M266.779,129.347c7.43,0,13.474-6.044,13.474-13.474s-6.044-13.474-13.474-13.474  s-13.474,6.044-13.474,13.474S259.349,129.347,266.779,129.347z M431.158,342.232c0-7.43-6.044-13.474-13.474-13.474  s-13.474,6.044-13.474,13.474s6.044,13.474,13.474,13.474S431.158,349.661,431.158,342.232z M87.361,414.989H8.084  c-4.466,0-8.084-3.62-8.084-8.084s3.618-8.084,8.084-8.084h79.277c3.529-12.426,14.971-21.558,28.512-21.558  c3.029,0,5.952,0.459,8.706,1.306l87.594-135.374c-4.584-5.22-7.374-12.054-7.374-19.533c0-16.345,13.298-29.642,29.642-29.642  c13.542,0,24.983,9.132,28.512,21.558h41.551c4.466,0,8.084,3.62,8.084,8.084c0,4.465-3.618,8.084-8.084,8.084h-41.551  c-3.529,12.426-14.971,21.558-28.512,21.558c-3.029,0-5.951-0.459-8.705-1.306l-87.595,135.374  c4.585,5.22,7.374,12.055,7.374,19.533c0,16.345-13.298,29.642-29.642,29.642C102.332,436.547,90.89,427.415,87.361,414.989z   M220.968,223.663c0,7.43,6.044,13.474,13.474,13.474s13.474-6.044,13.474-13.474s-6.044-13.474-13.474-13.474  S220.968,216.233,220.968,223.663z M102.4,406.905c0,7.43,6.044,13.474,13.474,13.474s13.474-6.044,13.474-13.474  s-6.044-13.474-13.474-13.474S102.4,399.475,102.4,406.905z" /><text
       id="text858"
       y="448.21121"
       x="150.11768"
       style="font-style:normal;font-weight:normal;font-size:105.19674683px;line-height:1.25;font-family:sans-serif;letter-spacing:0px;word-spacing:0px;fill:#008080;fill-opacity:1;stroke:none;stroke-width:1"
       xml:space="preserve"><tspan
         style="font-style:normal;font-variant:normal;font-weight:normal;font-stretch:normal;font-family:'Schumacher Clean';-inkscape-font-specification:'Schumacher Clean';fill:#008080;stroke-width:0.42585531"
         y="448.21121"
         x="150.11768"
         id="tspan856"
         sodipodi:role="line">Eleana</tspan></text>
</g></svg>