<?xml version="1.0" encoding="UTF-8" standalone="no"?>
<svg
   xmlns:dc="http://purl.org/dc/elements/1.1/"
   xmlns:cc="http://creativecommons.org/ns#"
   xmlns:rdf="http://www.w3.org/1999/02/22-rdf-syntax-ns#"
   xmlns:svg="http://www.w3.org/2000/svg"
   xmlns="http://www.w3.org/2000/svg"
   xmlns:xlink="http://www.w3.org/1999/xlink"
   xmlns:sodipodi="http://sodipodi.sourceforge.net/DTD/sodipodi-0.dtd"
   xmlns:inkscape="http://www.inkscape.org/namespaces/inkscape"
   version="1.1"
   id="Layer_1"
   x="0px"
   y="0px"
   viewBox="0 0 512 512"
   style="enable-background:new 0 0 512 512;"
   xml:space="preserve"
   sodipodi:docname="sourceforge-icon.svg"
   inkscape:version="1.0.1 (3bc2e813f5, 2020-09-07)"
   inkscape:export-filename="/home/marcin/eleana.png"
   inkscape:export-xdpi="72"
   inkscape:export-ydpi="72"><metadata
     id="metadata49"><rdf:RDF><cc:Work
         rdf:about=""><dc:format>image/svg+xml</dc:format><dc:type
           rdf:resource="http://purl.org/dc/dcmitype/StillImage" /><dc:title /></cc:Work></rdf:RDF></metadata><defs
     id="defs47"><linearGradient
   inkscape:collect="always"
   id="linearGradient1688"><stop
     style="stop-color:#aa0000;stop-opacity:1;"
     offset="0"
     id="stop1684" /><stop
     style="stop-color:#aa0000;stop-opacity:0;"
     offset="1"
     id="stop1686" /></linearGradient><linearGradient
   inkscape:collect="always"
   id="linearGradient263"><stop
     style="stop-color:#ededed;stop-opacity:1;"
     offset="0"
     id="stop259" /><stop
     style="stop-color:#ededed;stop-opacity:0;"
     offset="1"
     id="stop261" /></linearGradient>
<linearGradient
   inkscape:collect="always"
   xlink:href="#linearGradient263"
   id="linearGradient265"
   x1="97.39933"
   y1="101.17402"
   x2="287.35733"
   y2="92.667007"
   gradientUnits="userSpaceOnUse" /><filter
   inkscape:collect="always"
   style="color-interpolation-filters:sRGB"
   id="filter1314"
   x="-0.036732573"
   width="1.0734651"
   y="-0.066882862"
   height="1.1337657"><feGaussianBlur
     inkscape:collect="always"
     stdDeviation="2.1328645"
     id="feGaussianBlur1316" /></filter><filter
   inkscape:collect="always"
   style="color-interpolation-filters:sRGB"
   id="filter1680"
   x="-0.054704871"
   width="1.1094097"
   y="-0.13070425"
   height="1.2614085"><feGaussianBlur
     inkscape:collect="always"
     stdDeviation="4.1681"
     id="feGaussianBlur1682" /></filter><linearGradient
   inkscape:collect="always"
   xlink:href="#linearGradient1688"
   id="linearGradient1690"
   x1="-48.563412"
   y1="51.690239"
   x2="504.95432"
   y2="448.65582"
   gradientUnits="userSpaceOnUse" /></defs><sodipodi:namedview
     pagecolor="#ffffff"
     bordercolor="#666666"
     borderopacity="1"
     objecttolerance="10"
     gridtolerance="10"
     guidetolerance="10"
     inkscape:pageopacity="0"
     inkscape:pageshadow="2"
     inkscape:window-width="1920"
     inkscape:window-height="1135"
     id="namedview45"
     showgrid="false"
     inkscape:zoom="0.22627417"
     inkscape:cx="283.54951"
     inkscape:cy="371.796"
     inkscape:window-x="0"
     inkscape:window-y="0"
     inkscape:window-maximized="1"
     inkscape:current-layer="Layer_1"
     inkscape:document-rotation="0" /><g
     id="g14" /><g
     id="g16" /><g
     id="g18" /><g
     id="g20" /><g
     id="g22" /><g
     id="g24" /><g
     id="g26" /><g
     id="g28" /><g
     id="g30" /><g
     id="g32" /><g
     id="g34" /><g
     id="g36" /><g
     id="g38" /><g
     id="g40" /><g
     id="g42" /><path
     id="path2"
     d="M 441.937,482.358 H 75.453 c -23.812,0 -43.116,-19.304 -43.116,-43.116 V 72.758 c 0,-23.812 19.304,-43.116 43.116,-43.116 h 366.484 c 23.812,0 43.116,19.304 43.116,43.116 v 366.484 c 0,23.812 -19.303,43.116 -43.116,43.116 z"
     style="fill:url(#linearGradient265);fill-opacity:1" /><path
     id="path4"
     d="m 485.053,343.309 v 95.933 c 0,23.812 -19.303,43.116 -43.116,43.116 H 75.453 c -23.812,0 -43.116,-19.304 -43.116,-43.116 V 257.078 h 61.979 c 0.354,0 0.686,-0.174 0.886,-0.465 l 96.69,-139.662 h 74.31 L 416.787,342.83 c 0.201,0.3 0.537,0.48 0.897,0.48 h 67.369 z"
     style="fill:url(#linearGradient1690);fill-opacity:1" /><path
     id="path8"
     d="m 115.874,256 c 0,11.906 -9.651,21.558 -21.558,21.558 -11.907,0 -21.558,-9.652 -21.558,-21.558 0,-11.906 9.651,-21.558 21.558,-21.558 11.907,0 21.558,9.652 21.558,21.558 z M 191.326,94.316 c -11.906,0 -21.558,9.651 -21.558,21.558 0,11.907 9.651,21.558 21.558,21.558 11.907,0 21.558,-9.651 21.558,-21.558 0,-11.907 -9.651,-21.558 -21.558,-21.558 z m 75.453,0 c -11.906,0 -21.558,9.651 -21.558,21.558 0,11.907 9.651,21.558 21.558,21.558 11.906,0 21.558,-9.651 21.558,-21.558 0,-11.907 -9.652,-21.558 -21.558,-21.558 z m 150.905,226.358 c -11.906,0 -21.558,9.651 -21.558,21.558 0,11.906 9.651,21.558 21.558,21.558 11.906,0 21.558,-9.651 21.558,-21.558 0,-11.907 -9.651,-21.558 -21.558,-21.558 z"
     style="fill:#b7441c" /><path
     id="path10"
     d="m 137.432,406.905 c 0,11.906 -9.651,21.558 -21.558,21.558 -11.907,0 -21.558,-9.651 -21.558,-21.558 0,-11.907 9.651,-21.558 21.558,-21.558 11.907,0 21.558,9.652 21.558,21.558 z m 97.01,-204.8 c -11.906,0 -21.558,9.651 -21.558,21.558 0,11.907 9.651,21.558 21.558,21.558 11.907,0 21.558,-9.651 21.558,-21.558 0,-11.907 -9.651,-21.558 -21.558,-21.558 z"
     style="fill:#56889b" /><path
     id="path12"
     d="m 32.337,382.653 c -4.466,0 -8.084,-3.62 -8.084,-8.084 v -86.232 c 0,-4.465 3.618,-8.084 8.084,-8.084 4.466,0 8.084,3.62 8.084,8.084 v 86.232 c 0,4.465 -3.618,8.084 -8.084,8.084 z M 476.968,256 v 53.895 c 0,4.465 3.618,8.084 8.084,8.084 4.466,0 8.084,-3.62 8.084,-8.084 V 256 c 0,-4.465 -3.618,-8.084 -8.084,-8.084 -4.466,0 -8.084,3.619 -8.084,8.084 z M 361.095,223.663 c 0,4.465 3.618,8.084 8.084,8.084 h 134.737 c 4.466,0 8.084,-3.62 8.084,-8.084 0,-4.465 -3.618,-8.084 -8.084,-8.084 H 369.179 c -4.466,0 -8.084,3.62 -8.084,8.084 z M 512,342.232 c 0,4.465 -3.618,8.084 -8.084,8.084 h -57.719 c -3.529,12.426 -14.971,21.558 -28.512,21.558 -16.344,0 -29.642,-13.297 -29.642,-29.642 0,-7.332 2.682,-14.046 7.109,-19.226 L 275.87,144.084 c -2.867,0.926 -5.92,1.431 -9.091,1.431 -13.542,0 -24.983,-9.132 -28.512,-21.558 h -18.428 c -3.529,12.426 -14.971,21.558 -28.512,21.558 -3.353,0 -6.574,-0.568 -9.582,-1.599 l -64.556,93.248 c 4.227,5.124 6.77,11.689 6.77,18.835 0,16.345 -13.298,29.642 -29.642,29.642 -13.542,0 -24.983,-9.132 -28.512,-21.558 H 8.084 C 3.618,264.084 0,260.465 0,256 c 0,-4.465 3.618,-8.084 8.084,-8.084 h 57.719 c 3.529,-12.426 14.971,-21.558 28.512,-21.558 3.353,0 6.574,0.568 9.582,1.599 l 64.556,-93.248 c -4.228,-5.124 -6.77,-11.689 -6.77,-18.835 0,-16.345 13.298,-29.642 29.642,-29.642 13.542,0 24.983,9.132 28.512,21.558 h 18.428 c 3.529,-12.426 14.971,-21.558 28.512,-21.558 16.344,0 29.642,13.297 29.642,29.642 0,7.332 -2.682,14.046 -7.109,19.226 l 119.281,178.921 c 2.867,-0.926 5.92,-1.431 9.091,-1.431 13.542,0 24.983,9.132 28.512,21.558 h 57.719 c 4.469,-0.001 8.087,3.619 8.087,8.084 z M 107.789,256 c 0,-7.43 -6.044,-13.474 -13.474,-13.474 -7.43,0 -13.474,6.044 -13.474,13.474 0,7.43 6.044,13.474 13.474,13.474 7.431,0 13.474,-6.044 13.474,-13.474 z M 204.8,115.874 c 0,-7.43 -6.044,-13.474 -13.474,-13.474 -7.43,0 -13.474,6.044 -13.474,13.474 0,7.43 6.044,13.474 13.474,13.474 7.43,0 13.474,-6.044 13.474,-13.474 z m 61.979,13.473 c 7.43,0 13.474,-6.044 13.474,-13.474 0,-7.43 -6.044,-13.474 -13.474,-13.474 -7.43,0 -13.474,6.044 -13.474,13.474 0,7.43 6.044,13.474 13.474,13.474 z m 164.379,212.885 c 0,-7.43 -6.044,-13.474 -13.474,-13.474 -7.43,0 -13.474,6.044 -13.474,13.474 0,7.43 6.044,13.474 13.474,13.474 7.43,0 13.474,-6.045 13.474,-13.474 z M 87.361,414.989 H 8.084 c -4.466,0 -8.084,-3.62 -8.084,-8.084 0,-4.464 3.618,-8.084 8.084,-8.084 h 79.277 c 3.529,-12.426 14.971,-21.558 28.512,-21.558 3.029,0 5.952,0.459 8.706,1.306 l 87.594,-135.374 c -4.584,-5.22 -7.374,-12.054 -7.374,-19.533 0,-16.345 13.298,-29.642 29.642,-29.642 13.542,0 24.983,9.132 28.512,21.558 h 41.551 c 4.466,0 8.084,3.62 8.084,8.084 0,4.465 -3.618,8.084 -8.084,8.084 h -41.551 c -3.529,12.426 -14.971,21.558 -28.512,21.558 -3.029,0 -5.951,-0.459 -8.705,-1.306 l -87.595,135.374 c 4.585,5.22 7.374,12.055 7.374,19.533 -3.95544,36.04471 -49.356339,36.36823 -58.154,8.084 z M 220.968,223.663 c 0,7.43 6.044,13.474 13.474,13.474 7.43,0 13.474,-6.044 13.474,-13.474 0,-7.43 -6.044,-13.474 -13.474,-13.474 -7.43,0 -13.474,6.044 -13.474,13.474 z M 102.4,406.905 c 0,7.43 6.044,13.474 13.474,13.474 7.43,0 13.474,-6.044 13.474,-13.474 0,-7.43 -6.044,-13.474 -13.474,-13.474 -7.43,0 -13.474,6.044 -13.474,13.474 z"
     sodipodi:nodetypes="ssssssssssssssssssssssscssccsccsccssccsscsccssccssccsccssssssssssssssssssssscssscsccsscssscsccccssssssssss" /><text
     id="text858"
     y="113.50366"
     x="330.31921"
     style="font-style:normal;font-weight:normal;font-size:105.197px;line-height:1.25;font-family:sans-serif;letter-spacing:0px;word-spacing:0px;fill:#008080;fill-opacity:1;stroke:none;stroke-width:1"
     xml:space="preserve"><tspan
       style="font-style:normal;font-variant:normal;font-weight:normal;font-stretch:normal;font-family:'Schumacher Clean';-inkscape-font-specification:'Schumacher Clean';fill:#008080;stroke-width:0.425855"
       y="113.50366"
       x="330.31921"
       id="tspan856"
       sodipodi:role="line">Ele</tspan></text><text
     id="text858-3"
     y="421.49628"
     x="170.48744"
     style="font-style:normal;font-weight:normal;font-size:105.197px;line-height:1.25;font-family:sans-serif;letter-spacing:0px;word-spacing:0px;fill:#008080;fill-opacity:1;stroke:none;stroke-width:1"
     xml:space="preserve"><tspan
       style="font-style:normal;font-variant:normal;font-weight:normal;font-stretch:normal;font-family:'Schumacher Clean';-inkscape-font-specification:'Schumacher Clean';fill:#008080;stroke-width:0.425855"
       y="421.49628"
       x="170.48744"
       id="tspan856-6"
       sodipodi:role="line">Ana</tspan></text><text
     id="text858-7"
     y="120.88874"
     x="333.883"
     style="font-style:normal;font-weight:normal;font-size:105.197px;line-height:1.25;font-family:sans-serif;letter-spacing:0px;word-spacing:0px;fill:#008080;fill-opacity:1;stroke:none;stroke-width:1;opacity:0.75203136;filter:url(#filter1314)"
     xml:space="preserve"><tspan
       style="font-style:normal;font-variant:normal;font-weight:normal;font-stretch:normal;font-family:'Schumacher Clean';-inkscape-font-specification:'Schumacher Clean';fill:#008080;stroke-width:0.425855;"
       y="120.88874"
       x="333.883"
       id="tspan856-5"
       sodipodi:role="line">Ele</tspan></text><text
     id="text858-3-3"
     y="429.92459"
     x="177.60692"
     style="font-style:normal;font-weight:normal;font-size:105.197px;line-height:1.25;font-family:sans-serif;letter-spacing:0px;word-spacing:0px;opacity:0.89324174;fill:#008080;fill-opacity:1;stroke:none;stroke-width:1;filter:url(#filter1680)"
     xml:space="preserve"><tspan
       style="font-style:normal;font-variant:normal;font-weight:normal;font-stretch:normal;font-family:'Schumacher Clean';-inkscape-font-specification:'Schumacher Clean';fill:#008080;stroke-width:0.425855;"
       y="429.92459"
       x="177.60692"
       id="tspan856-6-5"
       sodipodi:role="line">Ana</tspan></text></svg>
